<svg xmlns="http://www.w3.org/2000/svg" viewBox="0 0 100 100">
  <circle cx="50" cy="50" r="46" fill="#fff"/>
  <path fill="#DB4437" d="M50 4a46 46 0 0 0-39.8 23l23 39.8a23 23 0 0 1 16.8-39.8z"/>
  <path fill="#0F9D58" d="M10.2 27A46 46 0 0 0 50 96l23-39.8a23 23 0 0 1-39.8-16.8z"/>
  <path fill="#FFCD40" d="M50 96a46 46 0 0 0 39.8-23l-23-39.8a23 23 0 0 1-16.8 39.8z"/>
  <path fill="#4285F4" d="M89.8 73A46 46 0 0 0 50 4l-23 39.8a23 23 0 0 1 39.8 16.8z"/>
  <circle cx="50" cy="50" r="18" fill="#fff"/>
  <circle cx="50" cy="50" r="14" fill="#4285F4"/>
</svg>
