<?xml version="1.0" standalone="no"?>
<!DOCTYPE svg PUBLIC "-//W3C//DTD SVG 20010904//EN"
 "http://www.w3.org/TR/2001/REC-SVG-20010904/DTD/svg10.dtd">
<svg version="1.0" xmlns="http://www.w3.org/2000/svg"
 width="4096.000000pt" height="4096.000000pt" viewBox="0 0 4096.000000 4096.000000"
 preserveAspectRatio="xMidYMid meet">
<metadata>
Created by potrace 1.14, written by Peter Selinger 2001-2017
</metadata>
<g transform="translate(0.000000,4096.000000) scale(0.100000,-0.100000)"
fill="#000000" stroke="none">
<path d="M8998 35835 c-2 -1 -55 -5 -118 -9 -63 -3 -124 -8 -135 -10 -11 -2
-56 -7 -99 -11 -43 -4 -86 -8 -95 -10 -32 -6 -97 -15 -136 -20 -22 -3 -78 -12
-125 -21 -47 -9 -96 -18 -110 -20 -24 -5 -39 -8 -97 -20 -261 -53 -578 -149
-883 -268 -185 -72 -243 -99 -475 -216 -536 -272 -1004 -612 -1439 -1046 -400
-400 -770 -913 -1024 -1419 -103 -206 -121 -246 -232 -520 -81 -201 -209 -627
-244 -815 -2 -14 -9 -45 -14 -70 -6 -25 -13 -61 -16 -80 -3 -19 -8 -47 -11
-62 -3 -16 -7 -40 -10 -55 -7 -36 -11 -67 -29 -193 -7 -50 -15 -116 -21 -185
-3 -33 -8 -78 -10 -100 -15 -154 -18 -784 -19 -3965 l-1 -3585 -745 -745
c-410 -410 -772 -777 -804 -815 -213 -251 -362 -605 -391 -930 -7 -72 -7 -263
-1 -325 33 -335 175 -676 386 -929 29 -35 392 -402 805 -816 l752 -752 0
-3599 c0 -3160 3 -3826 18 -3947 2 -15 6 -59 10 -97 4 -38 8 -81 10 -95 1 -14
6 -51 9 -83 4 -31 8 -64 10 -72 1 -8 6 -37 10 -65 4 -27 11 -72 16 -100 5 -27
12 -61 14 -75 4 -21 28 -140 41 -200 110 -502 323 -1053 595 -1535 176 -312
476 -730 689 -959 150 -162 329 -343 391 -396 14 -12 43 -38 65 -58 22 -21 69
-62 105 -92 36 -30 67 -58 70 -61 15 -19 359 -270 468 -342 417 -275 843 -481
1312 -638 172 -57 202 -66 390 -115 161 -42 372 -86 485 -100 17 -2 53 -8 80
-14 28 -5 70 -11 95 -14 65 -7 149 -16 195 -22 102 -12 270 -18 490 -18 212 0
254 3 355 23 698 142 1214 654 1361 1351 29 137 36 438 13 575 -63 385 -222
698 -488 961 -218 215 -480 367 -761 439 -16 5 -34 9 -40 11 -14 4 -45 10 -85
18 -19 3 -45 8 -57 10 -45 9 -152 17 -288 21 -305 8 -542 56 -800 162 -136 55
-349 170 -420 225 -5 5 -41 32 -80 61 -126 95 -272 236 -378 367 -241 299
-419 705 -463 1060 -3 25 -8 56 -12 70 -3 14 -8 1195 -9 2625 -5 4286 -9 5628
-17 5670 -41 212 -81 334 -161 500 -119 246 -151 284 -657 792 l-412 413 410
411 c479 481 414 411 502 531 140 189 262 464 297 668 3 19 8 42 11 51 5 16
12 75 19 154 2 22 5 1849 5 4060 1 2414 6 4054 11 4105 24 214 92 470 172 650
11 25 21 47 22 50 0 3 11 25 24 50 143 275 338 524 544 693 22 18 51 42 65 55
38 33 238 165 297 196 28 15 57 31 65 36 74 44 309 132 441 166 123 31 114 29
209 43 117 18 144 20 310 26 141 4 209 9 280 20 14 2 45 7 70 10 24 4 47 8 51
10 3 2 20 7 38 10 55 9 243 76 321 113 295 141 524 343 719 635 28 42 49 77
46 77 -4 0 2 12 12 28 16 22 50 94 93 197 38 89 83 268 95 380 4 33 9 69 11
80 5 23 4 254 0 305 -47 481 -302 933 -686 1215 -217 160 -499 279 -736 311
-27 3 -53 9 -59 12 -9 6 -481 13 -487 7z"/>
<path d="M31539 35836 c-2 -2 -26 -6 -54 -10 -85 -11 -118 -17 -180 -32 -33
-9 -64 -17 -70 -18 -114 -28 -295 -105 -410 -174 -467 -279 -777 -768 -831
-1312 -5 -51 -5 -291 0 -320 3 -14 9 -56 15 -95 21 -139 48 -241 93 -355 47
-121 134 -284 178 -337 5 -7 10 -15 10 -19 0 -15 118 -153 199 -235 266 -266
568 -419 956 -484 66 -11 136 -16 275 -20 168 -4 233 -10 350 -31 721 -129
1323 -595 1625 -1258 64 -141 143 -393 160 -513 3 -18 7 -48 10 -65 2 -18 8
-51 12 -73 4 -22 8 -1010 10 -2195 7 -4934 10 -6067 16 -6100 60 -311 128
-484 282 -715 92 -137 84 -129 557 -602 l392 -393 -407 -407 c-223 -225 -430
-438 -460 -474 -56 -70 -134 -188 -184 -280 -48 -88 -131 -311 -147 -393 -4
-17 -24 -117 -33 -156 -4 -19 -8 -933 -10 -2030 -2 -1097 -4 -2947 -6 -4110
-2 -1163 -6 -2131 -10 -2150 -6 -33 -11 -63 -22 -140 -4 -28 -32 -145 -59
-250 -16 -58 -77 -213 -122 -308 -331 -688 -993 -1157 -1749 -1237 -33 -4
-114 -8 -180 -10 -154 -5 -280 -14 -330 -25 -22 -5 -56 -12 -75 -15 -57 -10
-205 -54 -273 -82 -229 -93 -404 -209 -578 -382 -268 -269 -434 -601 -485
-970 -3 -25 -8 -57 -10 -71 -5 -30 -5 -283 0 -325 56 -460 255 -846 582 -1126
224 -193 532 -344 784 -385 14 -2 35 -7 48 -9 112 -26 658 -26 812 0 14 2 57
6 95 10 138 12 400 55 559 91 61 13 122 27 136 29 23 5 60 14 238 64 156 43
485 158 587 206 17 7 55 23 85 35 98 38 452 217 595 301 270 158 643 422 811
574 6 5 40 35 75 65 106 91 398 383 501 503 54 62 109 126 123 142 14 17 65
82 113 145 48 63 90 117 93 120 3 3 54 77 112 165 59 88 113 169 120 180 8 11
54 90 102 175 166 290 341 678 438 970 57 173 78 239 82 257 3 10 18 70 35
133 17 63 33 129 36 145 3 17 11 55 19 85 12 48 20 87 40 200 17 101 35 214
40 260 3 30 8 66 10 80 4 26 15 137 20 205 15 213 17 799 18 3934 l0 3604 757
757 c417 417 783 790 813 828 281 352 412 788 372 1237 -6 60 -13 102 -41 245
-13 63 -80 245 -125 339 -120 248 -155 286 -1013 1145 l-763 763 -1 3619 c0
1991 -3 3671 -6 3734 -9 174 -12 212 -32 395 -9 78 -14 115 -24 180 -5 33 -12
78 -15 100 -4 22 -15 83 -26 135 -11 52 -22 109 -25 125 -38 219 -205 745
-310 983 -9 21 -23 53 -31 72 -155 360 -388 763 -637 1095 -218 293 -399 493
-710 790 -71 68 -281 242 -396 329 -74 55 -137 103 -140 106 -13 14 -308 205
-410 265 -257 152 -622 326 -875 418 -197 71 -242 87 -253 87 -7 0 -20 4 -30
10 -40 22 -423 120 -607 156 -11 2 -31 6 -45 9 -56 11 -190 33 -240 39 -19 2
-60 7 -90 11 -69 9 -86 11 -185 20 -44 4 -93 9 -110 11 -39 5 -562 14 -566 10z"/>
<path d="M12618 23035 c-2 -1 -38 -5 -80 -9 -43 -4 -83 -8 -90 -11 -7 -2 -31
-6 -53 -9 -358 -47 -799 -232 -1117 -469 -143 -106 -327 -277 -418 -387 -19
-24 -40 -48 -46 -54 -20 -21 -121 -161 -166 -231 -174 -267 -303 -591 -363
-910 -37 -194 -52 -526 -33 -725 34 -357 160 -739 350 -1060 50 -84 160 -247
177 -260 3 -3 22 -25 41 -50 193 -251 522 -513 847 -674 159 -79 402 -168 523
-191 8 -2 33 -8 55 -13 22 -6 56 -13 75 -16 19 -3 44 -8 55 -10 190 -39 600
-42 810 -6 33 6 76 13 95 16 19 3 94 20 165 39 397 101 779 308 1079 585 109
100 242 244 302 325 10 15 34 46 51 70 58 78 151 231 207 341 128 257 203 495
252 805 19 120 26 459 12 589 -40 388 -156 741 -353 1075 -47 80 -157 242
-174 255 -3 3 -22 25 -41 50 -65 85 -191 215 -305 314 -343 301 -800 516
-1250 590 -136 22 -217 29 -397 31 -114 2 -208 2 -210 0z"/>
<path d="M20298 23035 c-1 -1 -38 -5 -80 -9 -43 -4 -83 -8 -90 -11 -7 -2 -31
-6 -53 -9 -358 -47 -799 -232 -1117 -469 -143 -106 -327 -277 -418 -387 -19
-24 -40 -48 -46 -54 -20 -21 -121 -161 -166 -231 -174 -267 -303 -591 -363
-910 -37 -194 -52 -526 -33 -725 34 -357 160 -739 350 -1060 50 -84 160 -247
177 -260 3 -3 22 -25 41 -50 193 -251 522 -513 847 -674 159 -79 402 -168 523
-191 8 -2 33 -8 55 -13 52 -14 111 -24 275 -46 89 -12 497 -15 545 -3 11 2 47
8 80 12 32 4 68 9 80 11 11 2 36 7 55 10 184 29 468 127 675 231 593 300 1042
814 1263 1446 23 64 44 127 46 140 2 12 11 50 20 84 28 107 46 214 65 383 9
77 8 481 -1 496 -3 5 -9 37 -12 72 -47 451 -285 975 -616 1356 -91 105 -298
293 -410 372 -30 21 -57 41 -60 44 -27 30 -287 174 -440 244 -159 72 -473 159
-655 181 -32 4 -68 9 -80 12 -22 5 -451 13 -457 8z"/>
<path d="M27930 23029 c-96 -10 -170 -20 -194 -25 -12 -2 -37 -7 -56 -10 -118
-21 -320 -78 -436 -124 -725 -284 -1262 -847 -1513 -1585 -30 -90 -74 -258
-85 -325 -3 -19 -8 -48 -11 -65 -24 -140 -29 -217 -30 -410 0 -236 11 -348 54
-545 54 -246 130 -454 248 -673 50 -93 130 -225 143 -237 3 -3 23 -30 44 -60
105 -148 313 -368 446 -470 24 -19 53 -43 65 -53 51 -46 259 -176 388 -242
255 -132 558 -229 812 -259 28 -4 82 -10 120 -15 70 -8 462 -7 500 2 11 2 47
8 80 12 32 4 68 9 80 11 11 2 36 7 55 10 184 29 468 127 675 231 593 300 1042
814 1263 1446 23 64 44 127 46 140 2 12 11 50 20 84 28 107 46 214 65 383 9
77 8 481 -1 496 -3 5 -9 37 -12 72 -47 451 -285 975 -616 1356 -91 105 -298
293 -410 372 -30 21 -57 41 -60 44 -27 30 -287 174 -440 244 -159 72 -473 159
-655 181 -32 4 -68 9 -80 12 -35 8 -438 10 -505 2z"/>
</g>
</svg>
